<svg xmlns="http://www.w3.org/2000/svg" version="1.1" xmlns:xlink="http://www.w3.org/1999/xlink" xmlns:svgjs="http://svgjs.dev/svgjs" width="100%" height="100%" viewBox="0 0 1000 600"><rect width="1000" height="600" x="0" y="0" fill="#f96167"/><g><circle r="166.66666666666666" cx="290.0357309977214" cy="312.2579402056001" fill="#fce77d" transform="matrix(1.0132199309793397,0,0,1.0132199309793395,0,-16.385990373966806)"/><path d="M272.93300097594494 357.37315274450384L272.93300097594494 357.37315274450384Q267.58014466268827 357.37315274450384 262.0352576296735 356.84506826516906L262.0352576296735 356.84506826516906Q248.04101892730296 355.45284554692296 239.9997325374331 346.21136715856505Q231.95844614756322 336.96988877020715 231.95844614756322 322.6155924682902L231.95844614756322 322.6155924682902Q231.95844614756322 308.9814113654661 239.2316096584007 294.2910613039725L239.2316096584007 294.2910613039725Q245.6166310903571 280.80090324096693 263.2594534681313 266.2785800592617L263.2594534681313 266.2785800592617Q282.9426022433351 250.02798039973362 305.24216957524294 242.61079384907754L305.24216957524294 242.61079384907754L296.9608447856754 242.61079384907754Q294.0083724693948 242.77882072886584 291.41595775266074 242.77882072886584Q288.82354303592655 242.77882072886584 286.75921279852713 242.77882072886584L286.75921279852713 242.77882072886584Q263.0674227483732 242.77882072886584 240.7918592564352 256.2689787918714L240.7918592564352 256.2689787918714Q218.49229192452742 269.7351330149072 218.49229192452742 283.39331795770113L218.49229192452742 283.39331795770113Q218.49229192452742 289.97037010941557 224.54125959690714 294.6271150635492L224.54125959690714 294.6271150635492Q225.40539783581852 295.49125330246056 225.40539783581852 296.0193377817953L225.40539783581852 296.0193377817953Q225.40539783581852 297.38755666007165 222.64495623929605 297.38755666007165L222.64495623929605 297.38755666007165Q218.9963725638924 297.38755666007165 215.53981960824683 295.1551995428839L215.53981960824683 295.1551995428839Q208.4586868171674 290.6424776285689 208.4586868171674 283.2252910779128L208.4586868171674 283.2252910779128Q208.4586868171674 268.36691413663084 230.23016966974043 254.8767560736253L230.23016966974043 254.8767560736253Q253.753932840106 240.01837913234337 287.26329343789206 240.01837913234337L287.26329343789206 240.01837913234337Q296.43276030634075 240.01837913234337 302.817781738297 240.09039065225264Q309.22680701022324 240.18640601213167 312.85138684565703 240.35443289192L312.85138684565703 240.35443289192Q324.2532108312934 237.25793753582087 335.6550348169298 237.25793753582087L335.6550348169298 237.25793753582087Q348.4490815208123 237.25793753582087 351.56958071688126 242.94684760865417L351.56958071688126 242.94684760865417Q351.73760759666953 243.1148744884425 351.73760759666953 243.64295896777725L351.73760759666953 243.64295896777725Q351.73760759666953 243.97901272735388 351.20952311733487 243.97901272735388L351.20952311733487 243.97901272735388Q350.7054424779698 243.97901272735388 345.16055544495504 242.77882072886584L345.16055544495504 242.77882072886584Q337.91139577408734 241.2185711308314 331.33434362237296 241.2185711308314L331.33434362237296 241.2185711308314Q329.6060671445501 241.2185711308314 328.06982138648544 241.31458649071044Q326.50957178845096 241.3865980106197 325.11734907020485 241.5786287303778L325.11734907020485 241.5786287303778Q337.2152844149643 243.3069052082006 347.75297016168923 248.9958152810339L347.75297016168923 248.9958152810339Q371.61278709163145 261.62183510512807 371.61278709163145 284.59350995618917L371.61278709163145 284.59350995618917Q371.61278709163145 308.9814113654661 346.8888319227778 329.52869837958133L346.8888319227778 329.52869837958133Q313.3794713249918 357.37315274450384 272.93300097594494 357.37315274450384ZM269.6444749000877 354.42068042822325L269.6444749000877 354.42068042822325Q288.1274316768035 354.42068042822325 308.3626687713118 346.3073825184441L308.3626687713118 346.3073825184441Q317.0040511604257 342.8508295627986 324.6132684308398 338.17008076869524Q332.1984818612843 333.51333581456163 338.94356089278705 327.9924526215166L338.94356089278705 327.9924526215166Q361.57918198427143 309.31746512504276 361.57918198427143 286.84987091334665L361.57918198427143 286.84987091334665Q361.57918198427143 274.91996244837554 355.19416055231505 264.38227670165054L355.19416055231505 264.38227670165054Q349.481246639512 255.21280983320193 342.56814072822095 251.94828759731448L342.56814072822095 251.94828759731448Q326.8456255480276 244.50709720668863 315.27577468260296 243.1148744884425L315.27577468260296 243.1148744884425Q292.44812287136045 248.29970392191083 272.5729433763984 266.97469141838474L272.5729433763984 266.97469141838474Q258.0746240346629 280.4648494813903 249.76929540512572 295.49125330246056L249.76929540512572 295.49125330246056Q241.8240243751349 309.6535188846194 241.8240243751349 324.53589966587106L241.8240243751349 324.53589966587106Q241.8240243751349 336.96988877020715 247.7049651677263 345.2752173997444Q253.56190212034792 353.5565421893118 263.9315609872846 354.25265354843486L263.9315609872846 354.25265354843486Q265.32378370553073 354.42068042822325 266.78801794368616 354.42068042822325Q268.25225218184147 354.42068042822325 269.6444749000877 354.42068042822325ZM339.97572601148676 387.25793350685603L339.97572601148676 387.25793350685603Q333.2546508199537 387.25793350685603 320.10054651652484 384.1614381507568Q306.9704460530657 381.04093895468793 287.4553241576502 374.1278330433969L287.4553241576502 374.1278330433969Q270.17255937942235 368.0788653710172 257.54653955532825 365.05438153482726Q244.92051973123404 362.02989769863746 236.97524870124323 361.86187081884907L236.97524870124323 361.86187081884907Q232.1504768673213 361.86187081884907 229.8941159101638 365.65447753407125L229.8941159101638 365.65447753407125Q227.82978567276436 369.63911496905155 226.60558983430656 369.63911496905155L226.60558983430656 369.63911496905155Q226.2695360747299 369.63911496905155 225.2373709560302 369.27905736950515L225.2373709560302 369.27905736950515Q221.42076040083822 367.7428116114405 221.42076040083822 363.06206281733716L221.42076040083822 363.06206281733716Q221.42076040083822 355.81290314646935 228.86195079146407 355.2848186671346L228.86195079146407 355.2848186671346Q229.72608903037548 355.1167917873463 230.59022726928686 355.1167917873463Q231.45436550819824 355.1167917873463 232.31850374710962 355.1167917873463L232.31850374710962 355.1167917873463Q247.87299204751463 355.1167917873463 275.35738881289075 364.62231241537154L275.35738881289075 364.62231241537154Q313.71552508456847 377.7524128788307 325.2853759499931 379.48068935665344L325.2853759499931 379.48068935665344Q327.8777906667273 379.84074695619995 330.3981938635522 380.08078535589755Q332.89459322040733 380.3448275955649 335.31898105735314 380.3448275955649L335.31898105735314 380.3448275955649Q344.8245016853784 380.3448275955649 351.56958071688126 377.05630151970763L351.56958071688126 377.05630151970763Q353.9939685538271 375.85610952121965 356.15431415110555 374.3918752830642Q358.31465974838403 372.9276410449088 360.0429362262068 371.0073338473279L360.0429362262068 371.0073338473279Q361.2431282246948 369.63911496905155 361.93923958381794 368.84698825004944Q362.635350942941 368.0788653710172 362.80337782272926 367.9108384912288L362.80337782272926 367.9108384912288Q362.80337782272926 368.4149191305937 362.635350942941 368.9430036099285L362.635350942941 368.9430036099285L361.93923958381794 375.1599981620966Q360.5470168655717 380.7048851951113 356.22632567101476 383.8013805512104L356.22632567101476 383.8013805512104Q350.34538487842343 387.25793350685603 339.97572601148676 387.25793350685603Z " fill="#f96167" transform="matrix(1.0132199309793397,0,0,1.0132199309793395,0,-16.385990373966806)"/><path d="M604.5100502313161 357.37315274450384L604.5100502313161 357.37315274450384Q599.1571939180595 357.37315274450384 593.6123068850446 356.84506826516906L593.6123068850446 356.84506826516906Q579.6180681826742 355.45284554692296 571.5767817928044 346.21136715856505Q563.5354954029344 336.96988877020715 563.5354954029344 322.6155924682902L563.5354954029344 322.6155924682902Q563.5354954029344 308.9814113654661 570.8086589137719 294.2910613039725L570.8086589137719 294.2910613039725Q577.1936803457284 280.80090324096693 594.8365027235026 266.2785800592617L594.8365027235026 266.2785800592617Q614.5196514987064 250.02798039973362 636.8192188306142 242.61079384907754L636.8192188306142 242.61079384907754L628.5378940410466 242.61079384907754Q625.5854217247661 242.77882072886584 622.9930070080319 242.77882072886584Q620.4005922912978 242.77882072886584 618.3362620538984 242.77882072886584L618.3362620538984 242.77882072886584Q594.6444720037445 242.77882072886584 572.3689085118064 256.2689787918714L572.3689085118064 256.2689787918714Q550.0693411798986 269.7351330149072 550.0693411798986 283.39331795770113L550.0693411798986 283.39331795770113Q550.0693411798986 289.97037010941557 556.1183088522783 294.6271150635492L556.1183088522783 294.6271150635492Q556.9824470911898 295.49125330246056 556.9824470911898 296.0193377817953L556.9824470911898 296.0193377817953Q556.9824470911898 297.38755666007165 554.2220054946673 297.38755666007165L554.2220054946673 297.38755666007165Q550.5734218192637 297.38755666007165 547.116868863618 295.1551995428839L547.116868863618 295.1551995428839Q540.0357360725386 290.6424776285689 540.0357360725386 283.2252910779128L540.0357360725386 283.2252910779128Q540.0357360725386 268.36691413663084 561.8072189251117 254.8767560736253L561.8072189251117 254.8767560736253Q585.3309820954772 240.01837913234337 618.8403426932633 240.01837913234337L618.8403426932633 240.01837913234337Q628.0098095617119 240.01837913234337 634.3948309936683 240.09039065225264Q640.8038562655944 240.18640601213167 644.4284361010283 240.35443289192L644.4284361010283 240.35443289192Q655.8302600866647 237.25793753582087 667.2320840723011 237.25793753582087L667.2320840723011 237.25793753582087Q680.0261307761835 237.25793753582087 683.1466299722525 242.94684760865417L683.1466299722525 242.94684760865417Q683.3146568520407 243.1148744884425 683.3146568520407 243.64295896777725L683.3146568520407 243.64295896777725Q683.3146568520407 243.97901272735388 682.786572372706 243.97901272735388L682.786572372706 243.97901272735388Q682.2824917333411 243.97901272735388 676.7376047003264 242.77882072886584L676.7376047003264 242.77882072886584Q669.4884450294586 241.2185711308314 662.9113928777441 241.2185711308314L662.9113928777441 241.2185711308314Q661.1831163999212 241.2185711308314 659.6468706418567 241.31458649071044Q658.0866210438222 241.3865980106197 656.6943983255761 241.5786287303778L656.6943983255761 241.5786287303778Q668.7923336703356 243.3069052082006 679.3300194170605 248.9958152810339L679.3300194170605 248.9958152810339Q703.1898363470028 261.62183510512807 703.1898363470028 284.59350995618917L703.1898363470028 284.59350995618917Q703.1898363470028 308.9814113654661 678.4658811781491 329.52869837958133L678.4658811781491 329.52869837958133Q644.956520580363 357.37315274450384 604.5100502313161 357.37315274450384ZM601.221524155459 354.42068042822325L601.221524155459 354.42068042822325Q619.7044809321748 354.42068042822325 639.939718026683 346.3073825184441L639.939718026683 346.3073825184441Q648.5811004157969 342.8508295627986 656.1903176862112 338.17008076869524Q663.7755311166555 333.51333581456163 670.5206101481582 327.9924526215166L670.5206101481582 327.9924526215166Q693.1562312396428 309.31746512504276 693.1562312396428 286.84987091334665L693.1562312396428 286.84987091334665Q693.1562312396428 274.91996244837554 686.7712098076864 264.38227670165054L686.7712098076864 264.38227670165054Q681.0582958948834 255.21280983320193 674.1451899835921 251.94828759731448L674.1451899835921 251.94828759731448Q658.4226748033988 244.50709720668863 646.8528239379742 243.1148744884425L646.8528239379742 243.1148744884425Q624.0251721267316 248.29970392191083 604.1499926317697 266.97469141838474L604.1499926317697 266.97469141838474Q589.6516732900342 280.4648494813903 581.3463446604969 295.49125330246056L581.3463446604969 295.49125330246056Q573.4010736305062 309.6535188846194 573.4010736305062 324.53589966587106L573.4010736305062 324.53589966587106Q573.4010736305062 336.96988877020715 579.2820144230975 345.2752173997444Q585.1389513757191 353.5565421893118 595.5086102426559 354.25265354843486L595.5086102426559 354.25265354843486Q596.900832960902 354.42068042822325 598.3650671990573 354.42068042822325Q599.8293014372127 354.42068042822325 601.221524155459 354.42068042822325ZM671.552775266858 387.25793350685603L671.552775266858 387.25793350685603Q664.8317000753249 387.25793350685603 651.6775957718961 384.1614381507568Q638.5474953084369 381.04093895468793 619.0323734130214 374.1278330433969L619.0323734130214 374.1278330433969Q601.7496086347936 368.0788653710172 589.1235888106995 365.05438153482726Q576.4975689866052 362.02989769863746 568.5522979566144 361.86187081884907L568.5522979566144 361.86187081884907Q563.7275261226924 361.86187081884907 561.471165165535 365.65447753407125L561.471165165535 365.65447753407125Q559.4068349281356 369.63911496905155 558.1826390896778 369.63911496905155L558.1826390896778 369.63911496905155Q557.8465853301011 369.63911496905155 556.8144202114014 369.27905736950515L556.8144202114014 369.27905736950515Q552.9978096562094 367.7428116114405 552.9978096562094 363.06206281733716L552.9978096562094 363.06206281733716Q552.9978096562094 355.81290314646935 560.4390000468353 355.2848186671346L560.4390000468353 355.2848186671346Q561.3031382857467 355.1167917873463 562.1672765246581 355.1167917873463Q563.0314147635694 355.1167917873463 563.8955530024808 355.1167917873463L563.8955530024808 355.1167917873463Q579.4500413028858 355.1167917873463 606.934438068262 364.62231241537154L606.934438068262 364.62231241537154Q645.2925743399397 377.7524128788307 656.8624252053643 379.48068935665344L656.8624252053643 379.48068935665344Q659.4548399220986 379.84074695619995 661.9752431189235 380.08078535589755Q664.4716424757786 380.3448275955649 666.8960303127245 380.3448275955649L666.8960303127245 380.3448275955649Q676.4015509407496 380.3448275955649 683.1466299722525 377.05630151970763L683.1466299722525 377.05630151970763Q685.5710178091982 375.85610952121965 687.7313634064768 374.3918752830642Q689.8917090037552 372.9276410449088 691.619985481578 371.0073338473279L691.619985481578 371.0073338473279Q692.820177480066 369.63911496905155 693.5162888391891 368.84698825004944Q694.2124001983121 368.0788653710172 694.3804270781005 367.9108384912288L694.3804270781005 367.9108384912288Q694.3804270781005 368.4149191305937 694.2124001983121 368.9430036099285L694.2124001983121 368.9430036099285L693.5162888391891 375.1599981620966Q692.124066120943 380.7048851951113 687.803374926386 383.8013805512104L687.803374926386 383.8013805512104Q681.9224341337946 387.25793350685603 671.552775266858 387.25793350685603ZM742.7721684571383 347.6756013967205L742.7721684571383 347.6756013967205Q738.2834503827929 346.6434362780208 734.2988129478127 342.8508295627986L734.2988129478127 342.8508295627986Q733.4346747089013 341.98669132388716 733.4346747089013 340.2584148460644L733.4346747089013 340.2584148460644Q733.4346747089013 333.34530893477324 739.6516692610693 320.8873159904674L739.6516692610693 320.8873159904674Q734.8268974271474 327.12831438260525 731.7063982310787 331.0889479776158Q728.5858990350097 335.073585412596 727.0496532769449 336.8018618904189L727.0496532769449 336.8018618904189Q720.3045742454423 344.57910604062135 715.8158561710969 346.13935563865573L715.8158561710969 346.13935563865573Q714.2556065730624 346.6434362780208 712.695356975028 346.6434362780208L712.695356975028 346.6434362780208Q706.3103355430716 346.6434362780208 705.2541665844022 341.4586068445524L705.2541665844022 341.4586068445524Q704.5820590652489 339.898357246518 704.5820590652489 337.1379156499954L704.5820590652489 337.1379156499954Q704.5820590652489 328.6645601406699 715.8158561710969 304.8287470506975L715.8158561710969 304.8287470506975Q718.408270887831 299.28386001768274 721.6727931237186 299.28386001768274L721.6727931237186 299.28386001768274Q724.0971809606643 299.28386001768274 726.3535419178219 302.9324436930864L726.3535419178219 302.9324436930864L719.0803784069843 317.2627361550335Q715.2877716917623 324.70392654565944 713.295452974272 330.056782858916Q711.3031342567818 335.40963917217266 711.3031342567818 338.36211148845325L711.3031342567818 338.36211148845325Q711.3031342567818 342.4907719632522 714.087579693274 342.4907719632522L714.087579693274 342.4907719632522Q718.5762977676194 342.4907719632522 728.5858990350097 330.92092109782743L728.5858990350097 330.92092109782743Q733.962759188236 324.70392654565944 739.0515732618254 317.09470927524524Q744.1403873354146 309.4854920048311 749.1571898890946 300.5080558561405L749.1571898890946 300.5080558561405Q750.1893550077945 298.41972177877136 752.2776890851636 298.41972177877136L752.2776890851636 298.41972177877136Q754.0059655629863 298.41972177877136 755.63822668093 299.9079598568965Q757.2944916388436 301.37219409505195 756.9344340392971 302.068305454175L756.9344340392971 302.068305454175Q740.1797537404042 336.8018618904189 740.1797537404042 341.98669132388716L740.1797537404042 341.98669132388716Q740.1797537404042 344.0510215612866 741.5479726186805 343.7149678017099L741.5479726186805 343.7149678017099Q755.5662151610208 342.4907719632522 771.6247841007906 318.99101263285627L771.6247841007906 318.99101263285627Q772.4889223397021 317.4307630348219 773.5210874584019 317.2627361550335L773.5210874584019 317.2627361550335Q774.5772564170712 316.92668239545685 774.5772564170712 317.95884751415656L774.5772564170712 317.95884751415656Q774.5772564170712 318.6549588732796 773.8811450579482 319.8551508717677L773.8811450579482 319.8551508717677Q766.2719277875341 331.78505933673887 755.7342420408091 340.7624954854293L755.7342420408091 340.7624954854293Q746.3967482925722 348.5397396356318 742.7721684571383 347.6756013967205ZM801.5335687031128 285.81770579464694L801.5335687031128 285.81770579464694Q798.7731271065901 286.1537595542236 795.5566125506422 285.1215944355239Q792.364101834664 284.0894293168242 792.364101834664 282.52917971878975L792.364101834664 282.52917971878975Q792.364101834664 281.49701460009 793.060213193787 280.36883412151127Q793.7563245529101 279.2406536429325 794.7884896716099 278.04046164444446L794.7884896716099 278.04046164444446Q797.7169581479208 274.41588180901056 798.2450426272554 273.4557282102201Q798.7731271065901 272.49557461142973 800.1413459848667 272.49557461142973L800.1413459848667 272.49557461142973Q804.1259834198469 272.49557461142973 806.3583405370347 276.31218516662165L806.3583405370347 276.31218516662165Q806.5503712567928 276.48021204641 806.5503712567928 277.00829652574475L806.5503712567928 277.00829652574475Q806.5503712567928 278.54454228380945 804.8220947789699 281.49701460009L804.8220947789699 281.49701460009Q802.5657338218124 285.6496789148586 801.5335687031128 285.81770579464694ZM775.4413946559827 348.20368587605515L775.4413946559827 348.20368587605515Q765.4077895486226 345.9473249188977 765.4077895486226 340.2584148460644L765.4077895486226 340.2584148460644Q765.4077895486226 337.49797324954193 772.1528685801255 320.71928911067903L772.1528685801255 320.71928911067903Q774.0491719377366 317.4307630348219 777.2416826537147 311.1417569627446Q780.4341933696929 304.8287470506975 785.2829690435846 295.6592801822489L785.2829690435846 295.6592801822489Q786.147107282496 294.2910613039725 789.0755757588068 294.2910613039725L789.0755757588068 294.2910613039725Q791.6679904755409 294.2910613039725 794.1883936723658 295.05918418300485Q796.6847930292209 295.82730706203716 796.180712389856 296.5234184211603L796.180712389856 296.5234184211603Q773.3530605786135 328.856590860428 773.3530605786135 341.2905799647641L773.3530605786135 341.2905799647641Q773.3530605786135 344.915159800198 775.7774484155594 344.915159800198L775.7774484155594 344.915159800198Q780.4341933696929 344.915159800198 790.467798477053 338.36211148845325L790.467798477053 338.36211148845325Q802.397706942024 330.2248097387044 810.5110048518032 318.822985753068L810.5110048518032 318.822985753068Q812.2392813296259 316.0625441565455 813.9675578074488 316.0625441565455L813.9675578074488 316.0625441565455Q814.4956422867834 316.0625441565455 814.4956422867834 316.56662479591046L814.4956422867834 316.56662479591046Q814.4956422867834 317.4307630348219 812.9353926887492 319.8551508717677L812.9353926887492 319.8551508717677Q805.3261754183349 331.78505933673887 791.860021195299 340.95452620518745L791.860021195299 340.95452620518745Q779.7620858505396 349.23585099475486 775.4413946559827 348.20368587605515ZM840.5878163339136 347.3395476371438L840.5878163339136 347.3395476371438Q839.3876243354254 347.3395476371438 838.0914169770584 347.24353227726476Q836.7952096186913 347.17152075735544 835.4029869004452 347.17152075735544L835.4029869004452 347.17152075735544Q829.8821037074002 347.3395476371438 822.87298243623 347.0755053974765Q815.8638611650598 346.81146315780904 807.2224787759461 346.3073825184441L807.2224787759461 346.3073825184441Q805.1581485385465 345.9473249188977 803.9579565400585 343.18688332237514L803.9579565400585 343.18688332237514Q802.9017875813892 341.2905799647641 802.9017875813892 340.42644172585267L802.9017875813892 340.42644172585267Q806.1903136572463 336.2737774110841 813.9675578074488 329.79274061924866Q821.7448019576512 323.3117038274132 834.2027949019572 314.6703214382994L834.2027949019572 314.6703214382994Q854.582055036284 300.1479982565941 852.3496979190962 299.9799713768058L852.3496979190962 299.9799713768058Q850.4293907215155 299.81194449701746 848.6291027237834 299.71592913713846Q846.8048108860816 299.64391761722914 845.0765344082587 299.64391761722914L845.0765344082587 299.64391761722914Q834.0107641821991 299.64391761722914 827.9617965098192 302.9324436930864L827.9617965098192 302.9324436930864Q822.7769670763511 305.6928852896089 821.2407213182863 305.6928852896089L821.2407213182863 305.6928852896089Q819.1523872409172 305.6928852896089 819.1523872409172 303.43652433245137L819.1523872409172 303.43652433245137Q819.1523872409172 301.7082478546286 820.8086521988306 299.3798753775618Q822.4409133167743 297.051502900495 824.1691897945972 296.6914453009486L824.1691897945972 296.6914453009486Q829.3540192280653 295.32322642267224 841.4519545728248 295.1551995428839L841.4519545728248 295.1551995428839Q843.5162848102244 295.1551995428839 845.4365920078052 295.05918418300485Q847.3328953654162 294.9631688231258 849.0611718432391 294.9631688231258L849.0611718432391 294.9631688231258Q854.9421126358305 294.9631688231258 858.2066348717179 295.49125330246056L858.2066348717179 295.49125330246056Q859.7668844697524 295.82730706203716 861.4951609475751 298.6117524985294L861.4951609475751 298.6117524985294Q863.5834950249442 301.37219409505195 863.5834950249442 303.26849745266304L863.5834950249442 303.26849745266304Q863.5834950249442 303.9646088117861 863.223437425398 304.30066257136275L863.223437425398 304.30066257136275Q854.9421126358305 309.6535188846194 848.8931449634507 313.73417167947866Q842.8441772910711 317.7908206343683 838.8595398560907 320.55126223089076L838.8595398560907 320.55126223089076Q821.9128288374396 332.31314381607353 811.5431699705031 341.62663372434076L811.5431699705031 341.62663372434076Q811.2071162109263 342.3227450834638 817.4241107630943 343.01885644258687L817.4241107630943 343.01885644258687Q824.5052435541737 344.0510215612866 831.418349465465 344.0510215612866L831.418349465465 344.0510215612866Q840.7558432137017 344.0510215612866 846.468757126505 342.3227450834638L846.468757126505 342.3227450834638Q858.3986655914761 338.8661921278183 859.9349113495406 333.17728205498497L859.9349113495406 333.17728205498497Q860.2949689490871 332.1211130963154 860.9910803082101 332.1211130963154L860.9910803082101 332.1211130963154Q863.5834950249442 332.1211130963154 863.5834950249442 337.1379156499954L863.5834950249442 337.1379156499954Q863.5834950249442 340.2584148460644 861.1591071879985 342.6828026830102L861.1591071879985 342.6828026830102Q856.8384159934416 347.3395476371438 840.5878163339136 347.3395476371438Z " fill="#fce77d" transform="matrix(1.0132199309793397,0,0,1.0132199309793395,0,-16.385990373966806)"/></g></svg>